<svg viewBox="0 0 24 24" fill="none" xmlns="http://www.w3.org/2000/svg"><path fill-rule="evenodd" clip-rule="evenodd" d="M18.4 5.6C16.4 3.6 13.8 2.5 11 2.5C5.5 2.5 1 7 1 12.5C1 14.7 1.7 16.8 3 18.5L2 22L5.7 21C7.3 21.8 9.1 22.3 11 22.3C16.5 22.3 21 17.8 21 12.3C21 9.5 19.9 6.9 18.4 5.6ZM11 20.5C9.3 20.5 7.7 20 6.2 19.2L5.9 19L3.8 19.6L4.5 17.6L4.2 17.3C3.3 15.8 2.8 14.1 2.8 12.4C2.8 7.9 6.4 4.3 11 4.3C13.2 4.3 15.2 5.2 16.8 6.8C18.4 8.4 19.3 10.4 19.2 12.5C19.2 17 15.6 20.5 11 20.5ZM15.3 14.4C15.1 14.3 14 13.7 13.8 13.6C13.6 13.5 13.5 13.4 13.3 13.7C13.1 13.9 12.6 14.5 12.4 14.7C12.2 14.9 12.1 14.9 11.8 14.8C11.6 14.7 10.9 14.5 10.1 13.8C9.5 13.2 9.1 12.5 8.9 12.1C8.8 11.8 8.9 11.6 9 11.5C9.1 11.4 9.2 11.2 9.4 11C9.5 10.8 9.6 10.7 9.7 10.5C9.8 10.3 9.7 10.2 9.6 10C9.5 9.8 9.1 8.8 8.9 8.3C8.7 7.8 8.5 7.9 8.4 7.9C8.2 7.9 8.1 7.9 7.9 7.9C7.7 7.9 7.5 8 7.2 8.3C7 8.6 6.5 9.1 6.5 10.1C6.5 11.1 7.3 12.1 7.4 12.2C7.5 12.4 9 14.6 11.2 15.5C11.7 15.7 12.1 15.8 12.4 15.9C12.9 16 13.4 16 13.8 15.9C14.2 15.8 15.1 15.3 15.3 14.7C15.5 14.1 15.5 13.6 15.3 13.4C15.2 13.2 15.1 13.1 14.9 13C14.8 12.9 14.6 12.8 14.5 12.8C14.3 12.8 14.2 12.8 14.1 12.9C14 12.9 13.8 13.1 13.7 13.2C13.6 13.4 13.5 13.5 13.3 13.5C13.2 13.5 13 13.4 12.9 13.4C12.8 13.3 12.2 13.1 11.7 12.6C11.2 12.1 10.9 11.5 10.8 11.3C10.7 11.1 10.8 11 10.9 10.9C11 10.8 11.1 10.7 11.2 10.6C11.3 10.5 11.4 10.4 11.4 10.3C11.5 10.2 11.5 10.1 11.4 10C11.4 9.9 11.1 9.2 11 8.8C10.8 8.4 10.7 8.5 10.6 8.5C10.5 8.5 10.3 8.5 10.2 8.5C10.2 8.5 10.2 8.5 10.2 8.5Z" fill="white"/></svg>